#!OML:ASF E:\Mandelcareful walks\Project 1\Capture day 1\Session 1\Subject1.ASF
:FULLY-SPECIFIED
:DEGREES
2061
root 14.2211 15.8715 5.21704 15.9122 264.711 -5.32708
lowerback 33.0537 3.00596 -4.20221
upperback 8.91845 1.16032 -1.8976
thorax -7.13069 0.140008 -0.113481
lowerneck -32.8532 3.87892 -1.00522
upperneck 25.005 9.05253 -9.62212
head 14.6063 2.16283 -1.86641
rclavicle -3.37934e-014 7.55382e-015
rhumerus -18.7701 7.06509 -82.3548
rradius 62.1339
rwrist -25.5631
rhand -17.3457 -24.4266
rfingers 7.12502
rthumb 8.90178 -54.2188
lclavicle -3.37934e-014 7.55382e-015
lhumerus -13.3765 -19.2123 79.5015
lradius 63.3262
lwrist 23.6131
lhand -28.9809 -11.5086
lfingers 7.12502
lthumb -2.33331 18.4584
rfemur -46.0494 -18.2521 15.2448
rtibia 62.853
rfoot -15.5606 -4.81404
rtoes -11.1395
lfemur -42.9313 9.06019 -23.3281
ltibia 57.3822
lfoot -21.2 1.78191
ltoes 12.2991
2062
root 14.1489 15.8666 5.21937 14.9365 264.88 -4.48724
lowerback 33.2287 2.92091 -4.14478
upperback 8.88372 1.07592 -1.76618
thorax -7.23466 0.100588 0.020643
lowerneck -32.7666 3.68728 -1.01268
upperneck 25.0614 8.74653 -9.51081
head 14.5867 2.05079 -1.88828
rclavicle 1.23246e-014 -2.18663e-014
rhumerus -18.5438 6.53638 -82.1602
rradius 62.4071
rwrist -25.3187
rhand -17.3782 -25.336
rfingers 7.12502
rthumb 8.87036 -55.1296
lclavicle 1.23246e-014 -2.18663e-014
lhumerus -12.9029 -18.9035 79.597
lradius 63.4974
lwrist 23.9998
lhand -29.14 -11.2818
lfingers 7.12502
lthumb -2.48692 18.6835
rfemur -46.685 -17.4744 15.1101
rtibia 59.9815
rfoot -15.0217 -4.36251
rtoes -11.4196
lfemur -42.7233 9.10865 -23.266
ltibia 57.6245
lfoot -21.4339 1.96762
ltoes 11.3176
2063
root 14.0807 15.8645 5.21812 13.6144 264.956 -3.12063
lowerback 33.1967 2.87982 -4.08019
upperback 8.81612 1.07081 -1.63619
thorax -7.29809 0.102467 0.124654
lowerneck -32.7012 3.51094 -1.06613
upperneck 25.1918 8.47588 -9.34124
head 14.5998 1.95348 -1.87207
rclavicle -7.95139e-016 -3.85642e-014
rhumerus -18.3519 5.98422 -82.0041
rradius 62.5961
rwrist -25.0541
rhand -17.1216 -24.7903
rfingers 7.12502
rthumb 9.11797 -54.5732
lclavicle -7.95139e-016 -3.85642e-014
lhumerus -12.4619 -18.731 79.7144
lradius 63.5891
lwrist 24.1247
lhand -29.2643 -11.0144
lfingers 7.12502
lthumb -2.60696 18.9494
rfemur -47.4094 -16.558 14.9392
rtibia 56.9962
rfoot -14.2967 -3.70131
rtoes -10.6333
lfemur -42.674 9.10916 -23.1505
ltibia 57.772
lfoot -21.7814 2.12156
ltoes 11.2933
2064
root 14.014 15.8564 5.21394 13.7883 265.083 -3.16501
lowerback 33.1248 2.8184 -4.04102
upperback 8.74393 1.03567 -1.52111
thorax -7.35056 0.0916947 0.237578
lowerneck -32.7986 3.27663 -1.31758
upperneck 25.3442 8.16023 -8.94856
head 14.6281 1.84666 -1.74068
rclavicle -1.51076e-014 1.31198e-014
rhumerus -18.2217 5.48546 -81.8592
rradius 62.9125
rwrist -24.9449
rhand -16.5625 -24.283
rfingers 7.12502
rthumb 9.65749 -54.0416
lclavicle -1.51076e-014 1.31198e-014
lhumerus -11.9035 -18.7338 79.861
lradius 63.4993
lwrist 24.3152
lhand -29.4448 -11.3861
lfingers 7.12502
lthumb -2.78131 18.5755
rfemur -48.1435 -15.7903 14.5418
rtibia 54.0877
rfoot -13.2449 -3.06351
rtoes -8.90825
lfemur -42.6399 9.01843 -23.1578
ltibia 57.8823
lfoot -22.1889 2.13406
ltoes 11.8763
2065
root 13.9474 15.8495 5.20266 14.8235 265.314 -4.16627
lowerback 32.9996 2.70349 -4.03139
upperback 8.78813 0.917924 -1.41931
thorax -7.25347 0.0347866 0.383089
lowerneck -32.8346 3.1096 -1.38788
upperneck 25.349 7.89771 -8.75901
head 14.6063 1.75868 -1.70805
rclavicle -5.56597e-015 -2.78299e-015
rhumerus -18.0125 5.11409 -81.769
rradius 63.4144
rwrist -24.8601
rhand -16.1932 -24.7074
rfingers 7.12502
rthumb 10.0137 -54.4492
lclavicle -5.56597e-015 -2.78299e-015
lhumerus -11.1825 -18.7605 79.9337
lradius 63.3501
lwrist 24.5602
lhand -29.6123 -11.7614
lfingers 7.12502
lthumb -2.943 18.198
rfemur -48.663 -15.1616 14.0071
rtibia 51.2938
rfoot -11.8989 -3.11376
rtoes -8.8245
lfemur -42.4685 8.91702 -23.2008
ltibia 57.9477
lfoot -22.4718 2.08215
ltoes 12.198
2066
root 13.8789 15.8442 5.18204 14.3942 265.566 -3.75419
lowerback 32.9393 2.57083 -3.91238
upperback 8.79012 0.811792 -1.30908
thorax -7.22669 -0.014487 0.473957
lowerneck -32.6894 3.07731 -1.31732
upperneck 25.2923 7.82384 -8.8282
head 14.5569 1.7309 -1.76333
rclavicle -4.37326e-014 -4.01545e-014
rhumerus -17.8596 4.85174 -81.7249
rradius 63.7555
rwrist -24.7621
rhand -16.1584 -25.0302
rfingers 7.12502
rthumb 10.0473 -54.7703
lclavicle -4.37326e-014 -4.01545e-014
lhumerus -10.6261 -18.7665 80.0081
lradius 63.4064
lwrist 24.6948
lhand -29.8301 -12.0112
lfingers 7.12502
lthumb -3.15337 17.9453
rfemur -49.0086 -14.5032 13.5811
rtibia 48.6497
rfoot -10.1408 -3.94699
rtoes -9.15152
lfemur -42.1979 8.94585 -23.0698
ltibia 57.9849
lfoot -22.7447 1.88048
ltoes 12.2688
